<svg width="31.000000" height="31.000000" viewBox="0 0 31 31" fill="none" xmlns="http://www.w3.org/2000/svg" xmlns:xlink="http://www.w3.org/1999/xlink">
	<desc>
			Created with Pixso.
	</desc>
	<defs/>
	<path id="Shape" d="M15.5 0C6.95245 0 0 6.95239 0 15.5C0 24.0476 6.95245 31 15.5 31C24.0475 31 31 24.0476 31 15.5C31 6.95239 24.0475 0 15.5 0ZM15.5 1.06885C23.4567 1.06885 29.931 7.54321 29.931 15.5C29.931 23.4568 23.4567 29.9312 15.5 29.9312C7.5433 29.9312 1.06897 23.4568 1.06897 15.5C1.06897 7.54321 7.5433 1.06885 15.5 1.06885ZM15.2662 3.21118C12.1156 3.27368 9.06534 4.54932 6.8063 6.8064C4.48465 9.13013 3.20691 12.2158 3.20691 15.5C3.20691 18.7842 4.48465 21.8699 6.8063 24.1936C6.91071 24.2959 7.04849 24.3503 7.1842 24.3503C7.32199 24.3503 7.45978 24.2959 7.56418 24.1936C7.77298 23.9829 7.77298 23.6467 7.56418 23.4358C5.44296 21.3167 4.27585 18.498 4.27585 15.5C4.27585 12.502 5.44296 9.68335 7.56418 7.56421C10.1009 5.02539 13.7337 3.84985 17.2851 4.41772C17.5774 4.46802 17.8488 4.26538 17.8968 3.9751C17.9427 3.68286 17.7444 3.40723 17.4542 3.36133C16.7234 3.24438 15.9927 3.19434 15.2662 3.21118ZM19.5942 3.948C19.3854 3.95654 19.1934 4.08789 19.1161 4.29468C19.0117 4.57031 19.1516 4.87915 19.4272 4.98364C19.8093 5.12549 20.1872 5.29053 20.5504 5.47217C20.6277 5.51196 20.7091 5.53076 20.7906 5.53076C20.9868 5.53076 21.1747 5.42407 21.2686 5.23633C21.4023 4.97314 21.2958 4.65161 21.0327 4.51807C20.634 4.31763 20.2206 4.13818 19.803 3.98145C19.7341 3.95654 19.6631 3.94604 19.5942 3.948ZM22.68 5.70605C22.5422 5.72266 22.4149 5.78955 22.323 5.90649C22.1414 6.13818 22.181 6.47437 22.4149 6.65601C22.7698 6.93579 23.1143 7.24048 23.4358 7.56421C25.557 9.68335 26.7242 12.502 26.7242 15.5C26.7242 18.498 25.557 21.3167 23.4358 23.4358C23.227 23.6467 23.227 23.9829 23.4358 24.1936C23.5402 24.2959 23.678 24.3503 23.8158 24.3503C23.9515 24.3503 24.0893 24.2959 24.1937 24.1936C26.5154 21.8699 27.7931 18.7842 27.7931 15.5C27.7931 12.2158 26.5154 9.13013 24.1937 6.8064C23.8388 6.45337 23.463 6.11938 23.0746 5.8147C22.9577 5.72485 22.8157 5.68921 22.68 5.70605ZM10.3556 24.2627C10.1489 24.2375 9.93805 24.3335 9.82739 24.5256L9.29291 25.4526C9.14465 25.7073 9.23236 26.033 9.48706 26.1814C9.57059 26.2292 9.66245 26.2544 9.7543 26.2544C9.93805 26.2544 10.1176 26.1584 10.2157 25.9871L10.7502 25.0601C10.8984 24.8054 10.8128 24.4775 10.556 24.3293C10.4913 24.2939 10.4224 24.271 10.3556 24.2627ZM20.6444 24.2627C20.5755 24.271 20.5087 24.2939 20.444 24.3293C20.1872 24.4775 20.1016 24.8054 20.2498 25.0623L20.7843 25.9871C20.8824 26.1584 21.062 26.2544 21.2457 26.2544C21.3376 26.2544 21.4294 26.2314 21.5129 26.1814C21.7697 26.0352 21.8553 25.7073 21.7071 25.4526L21.1726 24.5278C21.062 24.3357 20.8511 24.2375 20.6444 24.2627ZM12.7274 25.3044C12.5228 25.3337 12.3432 25.4819 12.2848 25.697L12.0092 26.7305C11.9319 27.0144 12.1031 27.3066 12.3871 27.3838C12.433 27.3965 12.481 27.4026 12.5269 27.4026C12.7629 27.4026 12.9779 27.2439 13.0426 27.0061L13.3182 25.9724C13.3955 25.6885 13.2263 25.3943 12.9424 25.3191C12.8694 25.2981 12.7963 25.2939 12.7274 25.3044ZM18.2726 25.3044C18.2037 25.2939 18.1306 25.2981 18.0576 25.3191C17.7737 25.3943 17.6045 25.6885 17.6797 25.9724L17.9574 27.0061C18.0221 27.2439 18.2371 27.4026 18.4731 27.4026C18.519 27.4026 18.5649 27.3965 18.6129 27.3838C18.8969 27.3066 19.066 27.0144 18.9908 26.7305L18.7152 25.697C18.6568 25.4819 18.4772 25.3337 18.2726 25.3044ZM15.5 25.6553C15.2056 25.6553 14.9655 25.8953 14.9655 26.1897L14.9655 27.2585C14.9655 27.553 15.2056 27.7932 15.5 27.7932C15.7944 27.7932 16.0345 27.553 16.0345 27.2585L16.0345 26.1897C16.0345 25.8953 15.7944 25.6553 15.5 25.6553Z" fill="#000000" fill-opacity="1.000000" fill-rule="nonzero"/>
</svg>
