<svg width="38.863632" height="38.000000" viewBox="0 0 38.8636 38" fill="none" xmlns="http://www.w3.org/2000/svg" xmlns:xlink="http://www.w3.org/1999/xlink">
	<desc>
			Created with Pixso.
	</desc>
	<defs/>
	<path id="Shape" d="M1.53731 0C0.689941 0 0 0.688721 0 1.53442C0 2.38037 0.689941 3.06885 1.53731 3.06885L2.05975 3.06885L3.56824 6.45557C4.1358 7.73096 5.06961 8.78491 6.26933 9.50293L7.37907 10.1685L7.37907 11.9282L6.26933 12.5935C5.07024 13.3118 4.1358 14.3655 3.56824 15.6409L2.05975 19.0276L1.53731 19.0276C0.688721 19.0276 0 19.7151 0 20.562C0 21.4092 0.688721 22.0964 1.53731 22.0964L7.80904 22.0964C7.82133 22.1519 7.83998 22.2068 7.85228 22.262C8.37497 24.22 9.47644 25.657 10.6386 25.97C12.5572 32.0095 17.4269 38 23.2133 38C28.9998 38 33.8695 32.0095 35.788 25.97C36.9502 25.657 38.0516 24.22 38.5804 22.262C39.2568 19.7454 38.6847 17.5669 37.2581 17.1802C37.0256 17.1169 36.6934 17.095 36.2937 17.2246C36.2617 15.7773 36.0559 14.5435 35.6679 13.4915C35.5148 13.0771 35.5605 12.9316 35.5562 12.9316C35.7321 12.7942 36.6326 12.9148 37.4911 13.2698C37.702 13.3569 37.9445 13.3198 38.1204 13.1738C38.2963 13.0271 38.3762 12.7947 38.327 12.572C36.7712 5.46802 31.4922 1.22754 24.2042 1.22754L23.2145 1.22754C22.179 1.22754 20.9072 1.39453 19.6595 1.71069C19.6663 1.65186 19.6775 1.59473 19.6775 1.53442C19.6775 0.688721 18.9876 0 18.1402 0L1.53731 0ZM1.53731 1.22754L18.1402 1.22754C18.31 1.22754 18.4477 1.36499 18.4477 1.53442C18.4477 1.70386 18.31 1.84131 18.1402 1.84131L17.2178 1.84131L2.45969 1.84131L1.53731 1.84131C1.36758 1.84131 1.22984 1.70386 1.22984 1.53442C1.22984 1.36499 1.36758 1.22754 1.53731 1.22754ZM23.2145 2.45508L24.2042 2.45508C30.6025 2.45508 35.1609 5.83618 36.8605 11.7783C36.119 11.6047 35.2261 11.5461 34.7059 12.0444C34.273 12.4587 34.2093 13.0884 34.515 13.9158C34.9946 15.2153 35.1613 16.8591 35.0266 18.9436C35.0045 19.2817 35.2612 19.5742 35.6007 19.5957C35.6142 19.5964 35.6286 19.5969 35.6415 19.5969C35.9631 19.5969 36.2331 19.3481 36.254 19.0227C36.2639 18.8706 36.2677 18.7249 36.2744 18.5769C36.3095 18.5627 36.3463 18.5569 36.3789 18.5361C36.5388 18.4316 36.7664 18.3218 36.9386 18.3647C37.4791 18.5125 37.9226 19.9729 37.3938 21.9431C37.1417 22.8821 36.7603 23.5945 36.3729 24.0793C35.9855 24.5642 35.5916 24.8096 35.3148 24.8096C35.0443 24.8096 34.8051 24.988 34.7251 25.2458C33.0218 30.9788 28.5201 36.7725 23.2133 36.7725C17.9066 36.7725 13.4049 30.9788 11.7016 25.2458C11.6216 24.988 11.3824 24.8096 11.1118 24.8096C10.5769 24.8096 9.59251 23.8704 9.08212 22.0964L18.1402 22.0964C18.9888 22.0964 19.6775 21.4092 19.6775 20.562C19.6775 19.7151 18.9888 19.0276 18.1402 19.0276L17.6178 19.0276L16.1093 15.6396C15.5417 14.3643 14.6079 13.3105 13.4082 12.5923L12.2985 11.9282L12.2985 10.1685L13.4082 9.50293C14.6073 8.78491 15.5417 7.73096 16.1093 6.45557L17.2202 3.96216C18.7293 3.08862 21.189 2.45508 23.2145 2.45508ZM3.4061 3.06885L16.2726 3.06885L14.9851 5.95801C14.5209 7.00146 13.7573 7.86353 12.7765 8.45166L11.6667 9.11572C11.2978 9.33545 11.0686 9.73926 11.0686 10.1685L11.0686 11.9282C11.0686 12.3567 11.2972 12.7598 11.6655 12.9807L12.7753 13.646C13.4892 14.074 14.0846 14.6504 14.5372 15.3328L13.1248 14.7681C10.7432 13.9004 8.77428 13.9019 6.53596 14.7754L5.14037 15.3315C5.59296 14.6492 6.18834 14.0728 6.90227 13.645L8.01201 12.9807C8.38036 12.7598 8.60892 12.3567 8.60892 11.9282L8.60892 10.1672C8.60892 9.73804 8.38036 9.33496 8.01201 9.1145L6.90227 8.45044C5.92085 7.8623 5.15727 7.00024 4.69238 5.95679L3.4061 3.06885ZM23.0932 3.68506C22.7544 3.71216 22.5017 4.00684 22.5288 4.34448L22.6248 5.53125C22.6501 5.85303 22.9189 6.09717 23.2362 6.09717C23.2528 6.09717 23.2688 6.09595 23.2854 6.09473C23.6242 6.06787 23.8769 5.77173 23.8499 5.43433L23.755 4.24731C23.728 3.90918 23.4222 3.65259 23.0932 3.68506ZM26.545 3.84937C26.2068 3.79468 25.8929 4.02271 25.8388 4.35645L25.6466 5.52881C25.5913 5.86353 25.8183 6.1792 26.1534 6.23389C26.1873 6.23926 26.2211 6.24219 26.2543 6.24219C26.5501 6.24219 26.8105 6.02759 26.8596 5.72681L27.0518 4.5542C27.1065 4.21973 26.8801 3.90332 26.545 3.84937ZM29.6028 4.9187C29.3633 4.91675 29.1345 5.05688 29.0335 5.29028L28.5675 6.36938C28.4328 6.67993 28.5764 7.04102 28.8882 7.1748C28.9675 7.20923 29.0502 7.22656 29.132 7.22656C29.3699 7.22656 29.5962 7.0874 29.6965 6.85596L30.1624 5.7771C30.2971 5.46582 30.1535 5.10474 29.8418 4.97021C29.764 4.93628 29.6826 4.91943 29.6028 4.9187ZM32.3087 6.84766C32.1525 6.86719 32.0046 6.94604 31.9003 7.08008L31.1917 7.99243C30.9839 8.26001 31.0317 8.64526 31.2998 8.85327C31.4117 8.94043 31.5453 8.98267 31.6769 8.98267C31.8602 8.98267 32.0422 8.90015 32.1634 8.74414L32.8708 7.83301C33.0786 7.56543 33.0308 7.18042 32.7627 6.97241C32.6289 6.86816 32.4649 6.82788 32.3087 6.84766ZM17.5806 9.60254C17.1277 9.64429 16.6992 9.88501 16.4348 10.2859L14.9563 12.5264C14.7694 12.8093 14.8482 13.1897 15.1317 13.3765C15.2356 13.4451 15.3529 13.4771 15.4691 13.4771C15.669 13.4771 15.8651 13.3806 15.9832 13.2014L17.4617 10.9619C17.5465 10.8337 17.7148 10.7878 17.8532 10.8552L19.2956 11.5566C21.9189 12.832 24.6912 13.4783 27.537 13.4783C27.8764 13.4783 28.1519 13.2034 28.1519 12.8645C28.1519 12.5256 27.8764 12.2495 27.537 12.2495C24.8799 12.2495 22.2884 11.6458 19.8349 10.4524L18.3924 9.75122C18.1328 9.62476 17.8523 9.57739 17.5806 9.60254ZM30.0003 12.2495C29.6609 12.2495 29.3854 12.5244 29.3854 12.8633C29.3854 13.2021 29.6609 13.4771 30.0003 13.4771L31.8487 13.4771C32.1881 13.4771 32.4636 13.2021 32.4636 12.8633C32.4636 12.5244 32.1881 12.2495 31.8487 12.2495L30.0003 12.2495ZM9.78712 15.3447C10.7062 15.3447 11.6426 15.5347 12.6852 15.9143L15.3575 16.9824C15.3587 16.9829 15.3598 16.9817 15.3611 16.9824L16.2714 19.0276L3.4061 19.0276L4.31647 16.9836L6.98755 15.9167C7.96527 15.5354 8.86804 15.345 9.78712 15.3447ZM29.5163 18.4138C28.8371 18.4138 28.2865 18.9634 28.2865 19.6414C28.2865 20.3193 28.8371 20.8689 29.5163 20.8689C30.1955 20.8689 30.7462 20.3193 30.7462 19.6414C30.7462 18.9634 30.1955 18.4138 29.5163 18.4138ZM1.53731 20.2551L2.45969 20.2551L7.80904 20.2551L8.60892 20.2551L17.2178 20.2551L18.1402 20.2551C18.3124 20.2551 18.4477 20.3901 18.4477 20.562C18.4477 20.7339 18.3124 20.8689 18.1402 20.8689L8.83591 20.8689L7.60007 20.8689L1.53731 20.8689C1.36513 20.8689 1.22984 20.7339 1.22984 20.562C1.22984 20.3901 1.36513 20.2551 1.53731 20.2551Z" fill="#FFFFFF" fill-opacity="1.000000" fill-rule="nonzero"/>
</svg>
