<svg width="32.000000" height="32.000000" viewBox="0 0 32 32" fill="none" xmlns="http://www.w3.org/2000/svg" xmlns:xlink="http://www.w3.org/1999/xlink">
	<desc>
			Created with Pixso.
	</desc>
	<defs/>
	<path id="Shape" d="M16 0C7.17664 0 0 7.17651 0 16C0 24.8235 7.17664 32 16 32C24.8206 32 32 24.8235 32 16C32 7.17651 24.8206 0 16 0ZM22.0163 19.1548L16.4511 24.7202C16.3886 24.7854 16.3098 24.8342 16.2256 24.8696C16.1413 24.9048 16.0489 24.9238 15.9592 24.9238C15.8696 24.9238 15.7772 24.9048 15.6929 24.8696C15.6087 24.8342 15.5326 24.7854 15.4674 24.7202L9.90216 19.1548C9.63043 18.8831 9.63043 18.4429 9.90216 18.1711C10.1739 17.8994 10.6141 17.8994 10.8859 18.1711L15.2636 22.5488L15.2636 7.53271C15.2636 7.14941 15.5761 6.83691 15.9592 6.83691C16.3424 6.83691 16.6549 7.14941 16.6549 7.53271L16.6549 22.5488L21.0326 18.1711C21.3044 17.8994 21.7446 17.8994 22.0163 18.1711C22.2881 18.4429 22.2881 18.8831 22.0163 19.1548Z" fill="#FFFFFF" fill-opacity="1.000000" fill-rule="nonzero"/>
</svg>
