<svg width="29.000000" height="40.000000" viewBox="0 0 29 40" fill="none" xmlns="http://www.w3.org/2000/svg" xmlns:xlink="http://www.w3.org/1999/xlink">
	<desc>
			Created with Pixso.
	</desc>
	<defs/>
	<path id="Shape" d="M11.4608 0.00317383C10.3043 0.0368652 9.18683 0.625488 8.55016 1.65356L8.32523 2.01831C8.00403 2.53638 7.43804 2.85547 6.81908 2.86792L6.81742 2.86792L6.38091 2.87769C4.50775 2.91577 2.98186 4.40527 2.94374 6.2356L2.93375 6.66187C2.92098 7.2666 2.59337 7.8208 2.06404 8.1333L1.69084 8.35474C0.0880356 9.30249 -0.471603 11.3391 0.431267 12.9431L0.432938 12.9431L0.642868 13.3174C0.941559 13.8472 0.941559 14.4871 0.642868 15.0168L0.432938 15.3894C-0.469795 16.9934 0.0886612 19.03 1.6925 19.978L2.06571 20.1978C2.59602 20.5115 2.92265 21.0645 2.93541 21.6689L2.93541 21.6707L2.94541 22.0972C2.97697 23.5774 3.98722 24.8213 5.36125 25.2678L0.929436 34.6497C0.80722 34.908 0.828194 35.209 0.985062 35.4487C1.14193 35.6882 1.41304 35.8333 1.70417 35.833L7.26559 35.833L10.4212 39.6873C10.6079 39.9153 10.903 40.031 11.1992 39.9927C11.4953 39.9546 11.7494 39.7676 11.869 39.5002L14.5265 33.5674L17.1839 39.5002C17.3035 39.7676 17.5576 39.9546 17.8537 39.9927C18.1499 40.031 18.445 39.9153 18.6317 39.6873L21.7873 35.833L27.3487 35.833C27.6399 35.8333 27.911 35.6882 28.0678 35.4487C28.2247 35.209 28.2457 34.908 28.1235 34.6497L23.685 25.2532C25.0359 24.7939 26.0246 23.5613 26.0558 22.0972L26.0558 22.0955L26.0658 21.6707L26.0658 21.6689C26.0786 21.0645 26.4062 20.5103 26.9355 20.1978L27.3104 19.9763C28.9133 19.0283 29.4712 16.9937 28.5683 15.3894L28.5666 15.3879L28.3534 15.012C28.0565 14.4827 28.0569 13.8445 28.355 13.3159L28.5666 12.9431L28.5666 12.9414C29.469 11.3384 28.911 9.30298 27.3087 8.35474L27.3071 8.35303L26.9339 8.1333C26.4036 7.81982 26.0769 7.2666 26.0642 6.66187L26.0642 6.6604L26.0542 6.2356L26.0542 6.23389C26.0152 4.40405 24.4904 2.91333 22.617 2.87598L22.1805 2.86621C21.5615 2.85376 20.9944 2.53369 20.6743 2.0166L20.4478 1.6521C19.4776 0.0852051 17.3928 -0.460449 15.751 0.421387L15.751 0.423096L15.3678 0.628174C14.8255 0.919922 14.1707 0.919922 13.6284 0.628174L13.2469 0.423096C12.8364 0.202637 12.3988 0.0710449 11.9573 0.0227051C11.7918 0.00463867 11.6261 -0.00170898 11.4608 0.00317383ZM11.4175 1.66504C11.7549 1.64087 12.1045 1.71069 12.4255 1.88306L12.8054 2.08813C13.8583 2.65479 15.1396 2.65479 16.1925 2.08813L16.5741 1.88159L16.5741 1.88306C17.4301 1.42334 18.4827 1.698 18.9883 2.51465L19.2148 2.87915C19.8364 3.88281 20.9435 4.5083 22.1438 4.53296L22.582 4.54272C23.559 4.56226 24.3299 5.31372 24.3498 6.26807L24.3498 6.26978L24.3581 6.69604C24.3829 7.86987 25.0235 8.95142 26.0508 9.55933L26.424 9.78052C27.2594 10.2742 27.5416 11.3015 27.0722 12.1375L26.8606 12.5117C26.2806 13.5405 26.2806 14.7905 26.8606 15.8193L26.8622 15.8208L26.8622 15.8225L27.0738 16.1919C27.5443 17.0278 27.2609 18.0566 26.4257 18.5505L26.0525 18.7717C25.0242 19.3792 24.3845 20.4612 24.3597 21.6348L24.3514 22.0613L24.3514 22.063C24.3315 23.0173 23.5606 23.7688 22.5837 23.7883L22.1455 23.7981C20.9447 23.8228 19.8385 24.447 19.2165 25.4502L19.2165 25.4517L18.9899 25.8164C18.4843 26.6328 17.4317 26.9077 16.5757 26.448L16.5757 26.4495L16.1942 26.2429C15.1413 25.6763 13.8599 25.6763 12.807 26.2429L12.4255 26.4495L12.4255 26.448C11.5698 26.9075 10.5169 26.6323 10.0113 25.8164L9.78474 25.4517C9.16317 24.4482 8.05611 23.8228 6.85574 23.7981L6.85407 23.7981L6.41756 23.7883C5.44061 23.7688 4.66971 23.0173 4.64983 22.063L4.64983 22.0613L4.64149 21.6348C4.61672 20.4612 3.97608 19.3796 2.94875 18.7717L2.57554 18.5505C1.73972 18.0564 1.45676 17.0281 1.92742 16.1919L2.13735 15.8208L2.13735 15.8193C2.71649 14.7908 2.71703 13.54 2.13735 12.5117L1.92576 12.1392L1.92742 12.1392C1.4569 11.303 1.73872 10.2744 2.57387 9.78052L2.94707 9.55933C3.97432 8.9519 4.61452 7.87036 4.63983 6.69775L4.63983 6.69604L4.64983 6.26978C4.6697 5.31519 5.43894 4.56226 6.41589 4.54272L6.41756 4.54272L6.85407 4.53467C8.0555 4.5105 9.16248 3.88452 9.78474 2.88086L10.0113 2.51636C10.2641 2.10791 10.6525 1.83374 11.086 1.72046C11.1943 1.69189 11.305 1.6731 11.4175 1.66504ZM20.7127 8.40356L13.6834 19.1379L8.03367 14.1704L6.89072 15.4106L14.0366 21.6919L22.1488 9.302L20.7127 8.40356ZM21.9222 25.5022L26.0142 34.1663L21.3774 34.1663C21.1182 34.1663 20.873 34.2812 20.711 34.4788L18.1802 37.5681L15.4578 31.4856L16.894 28.2791C18.265 28.4883 19.6944 27.8984 20.4494 26.679L20.676 26.3145C20.951 25.8708 21.4088 25.5864 21.9222 25.5022ZM7.12731 25.5088C7.62129 25.6035 8.05981 25.8855 8.32523 26.3145L8.55183 26.679C9.52206 28.2449 11.6066 28.7915 13.2486 27.9094L13.2486 27.908L13.6318 27.7029C14.1523 27.4229 14.774 27.4192 15.3028 27.6768L10.8727 37.5681L8.3419 34.4788C8.17989 34.2812 7.93466 34.1663 7.67546 34.1663L3.03871 34.1663L7.12731 25.5088Z" fill="#FFFFFF" fill-opacity="1.000000" fill-rule="nonzero"/>
</svg>
