<svg width="44.000000" height="36.000000" viewBox="0 0 44 36" fill="none" xmlns="http://www.w3.org/2000/svg" xmlns:xlink="http://www.w3.org/1999/xlink">
	<desc>
			Created with Pixso.
	</desc>
	<defs/>
	<path id="Shape" d="M2.0625 0C0.926514 0 0 0.933105 0 2.0769C0 2.97754 0.577393 3.73999 1.375 4.02686L1.375 23.6682C0.577393 23.9521 0 24.7148 0 25.6155L0 29.7693C0 30.9131 0.926514 31.8462 2.0625 31.8462L5.55371 31.8462C5.8894 34.1909 7.89282 36 10.3125 36C12.7322 36 14.7356 34.1909 15.0713 31.8462L30.3037 31.8462C30.6394 34.1909 32.6428 36 35.0625 36C37.4822 36 39.4856 34.1909 39.8213 31.8462L41.9375 31.8462C43.0735 31.8462 44 30.9131 44 29.7693L44 25.6155C44 24.7041 43.4119 23.9387 42.6008 23.6575C42.6089 23.6196 42.625 23.5818 42.625 23.5386L42.625 20.8909C42.625 20.2256 42.437 19.5767 42.0771 19.0168L37.1384 11.2825C36.5046 10.2874 35.425 9.69238 34.2488 9.69238L33 9.69238L33 8.30762C33 7.92627 32.6912 7.61548 32.3125 7.61548C31.9338 7.61548 31.625 7.92627 31.625 8.30762L31.625 9.69238L28.875 9.69238L28.875 4.02686C29.6726 3.73999 30.25 2.97754 30.25 2.0769C30.25 0.933105 29.3235 0 28.1875 0L2.0625 0ZM2.0625 1.38452L28.1875 1.38452C28.5662 1.38452 28.875 1.69556 28.875 2.0769C28.875 2.45825 28.5662 2.76929 28.1875 2.76929L2.0625 2.76929C1.68384 2.76929 1.375 2.45825 1.375 2.0769C1.375 1.69556 1.68384 1.38452 2.0625 1.38452ZM2.75 4.15381L27.5 4.15381L27.5 23.5386L2.75 23.5386L2.75 4.15381ZM15.125 5.53857C10.5757 5.53857 6.875 9.26514 6.875 13.8462C6.875 18.4272 10.5757 22.1538 15.125 22.1538C19.6743 22.1538 23.375 18.4272 23.375 13.8462C23.375 9.26514 19.6743 5.53857 15.125 5.53857ZM15.125 6.9231C18.917 6.9231 22 10.0276 22 13.8462C22 17.6646 18.917 20.7693 15.125 20.7693C11.333 20.7693 8.25 17.6646 8.25 13.8462C8.25 10.0276 11.333 6.9231 15.125 6.9231ZM28.875 11.0769L34.2488 11.0769C34.9524 11.0769 35.6023 11.4338 35.9836 12.0288L40.9224 19.7659C41.1372 20.104 41.25 20.4934 41.25 20.8909L41.25 23.5386L28.875 23.5386L28.875 11.0769ZM18.5625 11.1147C18.3879 11.1147 18.2107 11.1824 18.0764 11.3176L13.75 15.6743L12.1736 14.0869C11.905 13.8164 11.47 13.8164 11.2014 14.0869C10.9329 14.3572 10.9329 14.7954 11.2014 15.0659L13.2639 17.1428C13.3982 17.2778 13.5728 17.3455 13.75 17.3455C13.9272 17.3455 14.1018 17.2778 14.2361 17.1428L19.0486 12.2966C19.3171 12.0261 19.3171 11.5881 19.0486 11.3176C18.9143 11.1824 18.7371 11.1147 18.5625 11.1147ZM31.625 12.4614C30.8677 12.4614 30.25 13.0835 30.25 13.8462L30.25 18C30.25 18.7627 30.8677 19.3845 31.625 19.3845L36.5718 19.3845C37.0713 19.3845 37.5332 19.1116 37.7749 18.6707C38.0166 18.2327 38.0032 17.6943 37.7373 17.2671L35.1592 13.1106C34.9067 12.7048 34.469 12.4614 33.9937 12.4614L31.625 12.4614ZM31.625 13.8462L33.9937 13.8462L36.5771 18L31.625 18L31.625 13.8462ZM30.9375 20.7693C30.5588 20.7693 30.25 21.0803 30.25 21.4614C30.25 21.8428 30.5588 22.1538 30.9375 22.1538L32.3125 22.1538C32.6912 22.1538 33 21.8428 33 21.4614C33 21.0803 32.6912 20.7693 32.3125 20.7693L30.9375 20.7693ZM2.0625 24.9231L41.9375 24.9231C42.3162 24.9231 42.625 25.2341 42.625 25.6155L42.625 29.7693C42.625 30.1506 42.3162 30.4614 41.9375 30.4614L39.8213 30.4614C39.4856 28.1169 37.4822 26.3076 35.0625 26.3076C32.6428 26.3076 30.6394 28.1169 30.3037 30.4614L15.0713 30.4614C14.7356 28.1169 12.7322 26.3076 10.3125 26.3076C7.89282 26.3076 5.8894 28.1169 5.55371 30.4614L2.0625 30.4614C1.68384 30.4614 1.375 30.1506 1.375 29.7693L1.375 29.0769C1.75366 29.0769 2.0625 28.7659 2.0625 28.3845L2.0625 27C2.0625 26.6187 1.75366 26.3076 1.375 26.3076L1.375 25.6155C1.375 25.2341 1.68384 24.9231 2.0625 24.9231ZM4.8125 26.3076C4.43384 26.3076 4.125 26.6187 4.125 27L4.125 28.3845C4.125 28.7659 4.43384 29.0769 4.8125 29.0769C5.19116 29.0769 5.5 28.7659 5.5 28.3845L5.5 27C5.5 26.6187 5.19116 26.3076 4.8125 26.3076ZM15.8125 26.3076C15.4338 26.3076 15.125 26.6187 15.125 27L15.125 28.3845C15.125 28.7659 15.4338 29.0769 15.8125 29.0769C16.1912 29.0769 16.5 28.7659 16.5 28.3845L16.5 27C16.5 26.6187 16.1912 26.3076 15.8125 26.3076ZM19.25 26.3076C18.8713 26.3076 18.5625 26.6187 18.5625 27L18.5625 28.3845C18.5625 28.7659 18.8713 29.0769 19.25 29.0769C19.6287 29.0769 19.9375 28.7659 19.9375 28.3845L19.9375 27C19.9375 26.6187 19.6287 26.3076 19.25 26.3076ZM22.6875 26.3076C22.3088 26.3076 22 26.6187 22 27L22 28.3845C22 28.7659 22.3088 29.0769 22.6875 29.0769C23.0662 29.0769 23.375 28.7659 23.375 28.3845L23.375 27C23.375 26.6187 23.0662 26.3076 22.6875 26.3076ZM26.125 26.3076C25.7463 26.3076 25.4375 26.6187 25.4375 27L25.4375 28.3845C25.4375 28.7659 25.7463 29.0769 26.125 29.0769C26.5037 29.0769 26.8125 28.7659 26.8125 28.3845L26.8125 27C26.8125 26.6187 26.5037 26.3076 26.125 26.3076ZM29.5625 26.3076C29.1838 26.3076 28.875 26.6187 28.875 27L28.875 28.3845C28.875 28.7659 29.1838 29.0769 29.5625 29.0769C29.9412 29.0769 30.25 28.7659 30.25 28.3845L30.25 27C30.25 26.6187 29.9412 26.3076 29.5625 26.3076ZM40.5625 26.3076C40.1838 26.3076 39.875 26.6187 39.875 27L39.875 28.3845C39.875 28.7659 40.1838 29.0769 40.5625 29.0769C40.9412 29.0769 41.25 28.7659 41.25 28.3845L41.25 27C41.25 26.6187 40.9412 26.3076 40.5625 26.3076ZM10.3125 27.6924C12.2085 27.6924 13.75 29.2446 13.75 31.1538C13.75 33.063 12.2085 34.6155 10.3125 34.6155C8.4165 34.6155 6.875 33.063 6.875 31.1538C6.875 29.2446 8.4165 27.6924 10.3125 27.6924ZM35.0625 27.6924C36.9585 27.6924 38.5 29.2446 38.5 31.1538C38.5 33.063 36.9585 34.6155 35.0625 34.6155C33.1665 34.6155 31.625 33.063 31.625 31.1538C31.625 29.2446 33.1665 27.6924 35.0625 27.6924ZM10.3125 29.7693C9.55249 29.7693 8.9375 30.3884 8.9375 31.1538C8.9375 31.9192 9.55249 32.5386 10.3125 32.5386C11.0725 32.5386 11.6875 31.9192 11.6875 31.1538C11.6875 30.3884 11.0725 29.7693 10.3125 29.7693ZM35.0625 29.7693C34.3025 29.7693 33.6875 30.3884 33.6875 31.1538C33.6875 31.9192 34.3025 32.5386 35.0625 32.5386C35.8225 32.5386 36.4375 31.9192 36.4375 31.1538C36.4375 30.3884 35.8225 29.7693 35.0625 29.7693Z" fill="#FFFFFF" fill-opacity="1.000000" fill-rule="nonzero"/>
</svg>
